<?xml version="1.0" encoding="UTF-8" standalone="no"?>
<!-- Created with Inkscape (http://www.inkscape.org/) -->

<svg
   width="94.545151mm"
   height="13.431767mm"
   viewBox="0 0 94.545151 13.431767"
   version="1.1"
   id="svg15552"
   inkscape:version="1.2.1 (9c6d41e410, 2022-07-14)"
   sodipodi:docname="Meccano logo.svg"
   xmlns:inkscape="http://www.inkscape.org/namespaces/inkscape"
   xmlns:sodipodi="http://sodipodi.sourceforge.net/DTD/sodipodi-0.dtd"
   xmlns="http://www.w3.org/2000/svg"
   xmlns:svg="http://www.w3.org/2000/svg">
  <sodipodi:namedview
     id="namedview15554"
     pagecolor="#ffffff"
     bordercolor="#000000"
     borderopacity="0.25"
     inkscape:showpageshadow="2"
     inkscape:pageopacity="0.0"
     inkscape:pagecheckerboard="0"
     inkscape:deskcolor="#d1d1d1"
     inkscape:document-units="mm"
     showgrid="false"
     inkscape:zoom="0.80487751"
     inkscape:cx="175.80315"
     inkscape:cy="172.69709"
     inkscape:window-width="1920"
     inkscape:window-height="1011"
     inkscape:window-x="0"
     inkscape:window-y="0"
     inkscape:window-maximized="1"
     inkscape:current-layer="layer1" />
  <defs
     id="defs15549">
    <clipPath
       clipPathUnits="userSpaceOnUse"
       id="clipPath13722">
      <path
         d="M 0,0 H 841.89 V 595.275 H 0 Z"
         id="path13720" />
    </clipPath>
  </defs>
  <g
     inkscape:label="Layer 1"
     inkscape:groupmode="layer"
     id="layer1"
     transform="translate(-60.067103,-95.618069)">
    <g
       id="g13716"
       transform="matrix(0.35277777,0,0,-0.35277777,50.26168,297.28454)">
      <g
         id="g13718"
         clip-path="url(#clipPath13722)">
        <g
           id="g13724"
           transform="translate(282.1639,543.916)">
          <path
             d="m 0,0 c -2.512,-2.522 -6.598,-2.522 -9.144,0 l -9.129,9.146 c -2.532,2.525 -2.532,6.625 0,9.159 2.517,2.52 6.629,2.52 9.129,0 L 0,9.146 C 2.543,6.624 2.543,2.529 0,0 m -9.058,27.737 c -10.485,0 -18.985,-8.49 -18.985,-18.962 0,-10.475 8.5,-18.965 18.985,-18.965 10.488,0 18.992,8.49 18.992,18.965 0,10.472 -8.504,18.962 -18.992,18.962"
             style="fill:#ea002a;fill-opacity:1;fill-rule:nonzero;stroke:none"
             id="path13726" />
        </g>
        <g
           id="g13728"
           transform="translate(192.3669,546.9335)">
          <path
             d="M 0,0 5.176,11.163 9.723,0 Z M 28.996,-12.028 11.735,23.403 H 4.158 L -12.258,-12.05 h 6.694 l 3.041,6.579 H 11.92 l 2.695,-6.557 z"
             style="fill:#ea002a;fill-opacity:1;fill-rule:nonzero;stroke:none"
             id="path13730" />
        </g>
        <g
           id="g13732"
           transform="translate(62.8209,570.499)">
          <path
             d="m 0,0 h -7.322 c -3.218,-4.264 -24.681,-31.724 -27.704,-35.616 h 8.999 c 1.486,1.864 12.281,15.784 14.075,18.165 z"
             style="fill:#ea002a;fill-opacity:1;fill-rule:nonzero;stroke:none"
             id="path13734" />
        </g>
        <g
           id="g13736"
           transform="translate(78.8819,570.499)">
          <path
             d="m 0,0 c -2.302,-2.979 -13.546,-17.011 -16.058,-20.144 0.015,1.381 -0.025,13.314 -0.011,18.329 l -11.915,-20.206 c 0.004,-4.555 0.018,-12.214 0.006,-13.563 h 9.404 c 0.031,0.039 10.206,12.945 14.236,18.138 0.022,-1.954 -0.059,-14.547 0,-18.17 H 8.3 V 0 Z"
             style="fill:#ea002a;fill-opacity:1;fill-rule:nonzero;stroke:none"
             id="path13738" />
        </g>
        <g
           id="g13740"
           transform="translate(90.4329,534.8831)">
          <path
             d="M 0,0 H 27.217 L 30.04,8.42 H 0 Z"
             style="fill:#ea002a;fill-opacity:1;fill-rule:nonzero;stroke:none"
             id="path13742" />
        </g>
        <g
           id="g13744"
           transform="translate(119.0589,562.0165)">
          <path
             d="M 0,0 2.82,8.425 H -28.626 V 0 Z"
             style="fill:#ea002a;fill-opacity:1;fill-rule:nonzero;stroke:none"
             id="path13746" />
        </g>
        <g
           id="g13748"
           transform="translate(114.8289,548.7021)">
          <path
             d="M 0,0 2.823,8.416 H -24.396 V 0 Z"
             style="fill:#ea002a;fill-opacity:1;fill-rule:nonzero;stroke:none"
             id="path13750" />
        </g>
        <g
           id="g13752"
           transform="translate(245.5199,551.0966)">
          <path
             d="m 0,0 -19.737,19.258 h -6.947 L -26.688,-16.2 h 6.838 V 2.099 L -2.411,-16.2 H 6.812 V 19.258 H 0 Z"
             style="fill:#ea002a;fill-opacity:1;fill-rule:nonzero;stroke:none"
             id="path13754" />
        </g>
        <g
           id="g13756"
           transform="translate(149.5409,544.0527)">
          <path
             d="m 0,0 c -2.158,-2.569 -5.277,-4.182 -8.748,-4.182 -3.043,0 -5.815,1.239 -7.908,3.275 V 17.91 c 2.093,2.034 4.865,3.273 7.908,3.273 3.471,0 6.59,-1.617 8.748,-4.181 l 3.176,5.08 c -3.446,3.334 -8.153,5.391 -13.346,5.391 -10.557,0 -19.115,-8.494 -19.115,-18.971 0,-10.481 8.558,-18.976 19.115,-18.976 5.193,0 9.9,2.058 13.346,5.388 z"
             style="fill:#ea002a;fill-opacity:1;fill-rule:nonzero;stroke:none"
             id="path13758" />
        </g>
        <g
           id="g13760"
           transform="translate(180.3849,544.0527)">
          <path
             d="m 0,0 c -2.158,-2.569 -5.28,-4.182 -8.75,-4.182 -3.043,0 -5.817,1.239 -7.908,3.275 V 17.91 c 2.091,2.034 4.865,3.273 7.908,3.273 3.47,0 6.592,-1.617 8.75,-4.181 l 3.175,5.08 c -3.445,3.334 -8.156,5.391 -13.347,5.391 -10.559,0 -19.111,-8.494 -19.111,-18.971 0,-10.481 8.552,-18.976 19.111,-18.976 5.191,0 9.902,2.058 13.347,5.388 z"
             style="fill:#ea002a;fill-opacity:1;fill-rule:nonzero;stroke:none"
             id="path13762" />
        </g>
        <g
           id="g13764"
           transform="translate(42.7709,520.546)" />
        <g
           id="g13768"
           transform="translate(65.5029,528.2631)" />
        <g
           id="g13772"
           transform="translate(85.1329,525.9)" />
        <g
           id="g13776"
           transform="translate(106.9009,525.85)" />
        <g
           id="g13780"
           transform="translate(129.9819,525.019)" />
        <g
           id="g13784"
           transform="translate(169.0999,523.428)" />
        <g
           id="g13788"
           transform="translate(193.2169,524.019)" />
        <g
           id="g13792"
           transform="translate(211.8259,523.428)" />
        <g
           id="g13796"
           transform="translate(235.4859,520.546)" />
        <g
           id="g13800"
           transform="translate(254.3949,525.85)" />
        <g
           id="g13804"
           transform="translate(279.3789,520.546)" />
        <g
           id="g13808"
           transform="translate(295.7969,567.4755)">
          <path
             d="M 0,0 H -0.465 V 2.396 H -0.479 L -1.434,0 h -0.26 L -2.623,2.396 H -2.637 V 0 h -0.465 v 2.794 h 0.739 l 0.802,-1.972 0.83,1.972 H 0 Z M -3.57,2.396 H -4.455 V 0 h -0.496 v 2.396 h -0.883 v 0.398 h 2.264 z"
             style="fill:#a7a5a6;fill-opacity:1;fill-rule:nonzero;stroke:none"
             id="path13810" />
        </g>
      </g>
    </g>
  </g>
</svg>
